<svg width="1398" height="1398" viewBox="0 0 1398 1398" fill="none" xmlns="http://www.w3.org/2000/svg">
<path d="M163 505.048C117 435.048 117 433.548 65 354.548C171.5 354.048 304.022 353.198 320.5 354.048C401.048 358.199 475.5 412.048 509.5 451.548C489.5 474.548 440 555.548 438.5 610.048C419.5 571.048 389 515.548 302.5 505.048C239.5 505.048 237.5 503.548 163 505.048Z" fill="white"/>
<path d="M757 352.048C826.5 350.548 911 384.548 942 418.048C895.055 491.548 901 482.548 860 546.048C829 514.548 793 505.048 758 504.048C699.524 502.377 660.186 528.324 626 576.048C589.5 635.048 590 699.048 610 750.548C636.912 807.069 678.112 839.386 740.5 844.548C795.923 849.134 842 822.048 870 788.548C911.5 828.048 928 843.548 979.5 891.548C953.5 916.548 937.148 936.963 904 957.048C824.996 1004.92 757.963 1014.64 669.5 988.048C597 961.048 549.815 929.7 505.5 862.548C469 801.548 450.374 741.015 455 659.548C464.5 578.048 481 530.048 532 460.548C585.5 401.048 658.103 351.225 757 352.048Z" fill="white"/>
<path d="M995.5 862.548C954.5 823.548 941 809.548 889 761.048C914 720.548 927 702.548 944.5 672.548C922.5 637.548 905 610.048 880.5 570.548C930.5 492.548 951.5 460.548 966 437.048C986 468.048 1013.5 513.048 1035 543.048C1066.5 494.048 1121 411.548 1160 354.548H1333C1309.5 392.048 1161.5 611.548 1122.5 671.548C1173.5 759.048 1263 903.048 1321 997.548H1146C1090 907.048 1064 865.048 1030 811.048C1016 830.048 1011 840.048 995.5 862.548Z" fill="white"/>
<path d="M163 505.048C117 435.048 117 433.548 65 354.548C171.5 354.048 304.022 353.198 320.5 354.048C401.048 358.199 475.5 412.048 509.5 451.548C489.5 474.548 440 555.548 438.5 610.048C419.5 571.048 389 515.548 302.5 505.048C239.5 505.048 237.5 503.548 163 505.048Z" stroke="#FF0000"/>
<path d="M757 352.048C826.5 350.548 911 384.548 942 418.048C895.055 491.548 901 482.548 860 546.048C829 514.548 793 505.048 758 504.048C699.524 502.377 660.186 528.324 626 576.048C589.5 635.048 590 699.048 610 750.548C636.912 807.069 678.112 839.386 740.5 844.548C795.923 849.134 842 822.048 870 788.548C911.5 828.048 928 843.548 979.5 891.548C953.5 916.548 937.148 936.963 904 957.048C824.996 1004.92 757.963 1014.64 669.5 988.048C597 961.048 549.815 929.7 505.5 862.548C469 801.548 450.374 741.015 455 659.548C464.5 578.048 481 530.048 532 460.548C585.5 401.048 658.103 351.225 757 352.048Z" stroke="#FF0000"/>
<path d="M995.5 862.548C954.5 823.548 941 809.548 889 761.048C914 720.548 927 702.548 944.5 672.548C922.5 637.548 905 610.048 880.5 570.548C930.5 492.548 951.5 460.548 966 437.048C986 468.048 1013.5 513.048 1035 543.048C1066.5 494.048 1121 411.548 1160 354.548H1333C1309.5 392.048 1161.5 611.548 1122.5 671.548C1173.5 759.048 1263 903.048 1321 997.548H1146C1090 907.048 1064 865.048 1030 811.048C1016 830.048 1011 840.048 995.5 862.548Z" stroke="#FF0000"/>
<path d="M64 1037.55L155 601.048H296.5C296.5 601.048 247 835.548 238 884.548H295C342.536 876.909 402.129 848.738 435.5 771.548C437 830.548 462 878.048 500.5 936.548C467.5 971.548 378.5 1034.55 286.5 1037.55H64Z" fill="white"/>
<g filter="url(#filter0_d_22_2)">
<rect x="19" y="15" width="1360" height="1360" rx="235" stroke="white" stroke-width="30" shape-rendering="crispEdges"/>
</g>
<defs>
<filter id="filter0_d_22_2" x="0" y="0" width="1398" height="1398" filterUnits="userSpaceOnUse" color-interpolation-filters="sRGB">
<feFlood flood-opacity="0" result="BackgroundImageFix"/>
<feColorMatrix in="SourceAlpha" type="matrix" values="0 0 0 0 0 0 0 0 0 0 0 0 0 0 0 0 0 0 127 0" result="hardAlpha"/>
<feOffset dy="4"/>
<feGaussianBlur stdDeviation="2"/>
<feComposite in2="hardAlpha" operator="out"/>
<feColorMatrix type="matrix" values="0 0 0 0 0 0 0 0 0 0 0 0 0 0 0 0 0 0 0.25 0"/>
<feBlend mode="normal" in2="BackgroundImageFix" result="effect1_dropShadow_22_2"/>
<feBlend mode="normal" in="SourceGraphic" in2="effect1_dropShadow_22_2" result="shape"/>
</filter>
</defs>
</svg>
