<svg width="1269" height="651" viewBox="0 0 1269 651" fill="none" xmlns="http://www.w3.org/2000/svg">
<path d="M99 153.048C53 83.0479 53 81.5479 0.999969 2.54765C107.5 2.04757 240.022 1.19831 256.5 2.04763C337.048 6.19931 411.5 60.0479 445.5 99.5476C425.5 122.548 376 203.548 374.5 258.048C355.5 219.048 325 163.548 238.5 153.048C175.5 153.048 173.5 151.548 99 153.048Z" fill="white"/>
<path d="M693 0.0478799C762.5 -1.45212 847 32.5481 878 66.0479C831.055 139.548 837 130.548 796 194.048C765 162.548 729 153.048 694 152.048C635.524 150.377 596.186 176.324 562 224.048C525.5 283.048 526 347.048 546 398.548C572.912 455.069 614.112 487.386 676.5 492.548C731.923 497.134 778 470.048 806 436.548C847.5 476.048 864 491.548 915.5 539.548C889.5 564.548 873.148 584.963 840 605.048C760.996 652.917 693.963 662.643 605.5 636.048C533 609.048 485.815 577.7 441.5 510.548C405 449.548 386.374 389.015 391 307.548C400.5 226.048 417 178.048 468 108.548C521.5 49.0479 594.103 -0.775387 693 0.0478799Z" fill="white"/>
<path d="M931.5 510.548C890.5 471.548 877 457.548 825 409.048C850 368.548 863 350.548 880.5 320.548C858.5 285.548 841 258.048 816.5 218.548C866.5 140.548 887.5 108.548 902 85.0477C922 116.048 949.5 161.048 971 191.048C1002.5 142.048 1057 59.5477 1096 2.54765H1269C1245.5 40.0479 1097.5 259.548 1058.5 319.548C1109.5 407.048 1199 551.048 1257 645.548H1082C1026 555.048 1000 513.048 966 459.048C952 478.048 947 488.048 931.5 510.548Z" fill="white"/>
<path d="M99 153.048C53 83.0479 53 81.5479 0.999969 2.54765C107.5 2.04757 240.022 1.19831 256.5 2.04763C337.048 6.19931 411.5 60.0479 445.5 99.5476C425.5 122.548 376 203.548 374.5 258.048C355.5 219.048 325 163.548 238.5 153.048C175.5 153.048 173.5 151.548 99 153.048Z" stroke="#FF0000"/>
<path d="M693 0.0478799C762.5 -1.45212 847 32.5481 878 66.0479C831.055 139.548 837 130.548 796 194.048C765 162.548 729 153.048 694 152.048C635.524 150.377 596.186 176.324 562 224.048C525.5 283.048 526 347.048 546 398.548C572.912 455.069 614.112 487.386 676.5 492.548C731.923 497.134 778 470.048 806 436.548C847.5 476.048 864 491.548 915.5 539.548C889.5 564.548 873.148 584.963 840 605.048C760.996 652.917 693.963 662.643 605.5 636.048C533 609.048 485.815 577.7 441.5 510.548C405 449.548 386.374 389.015 391 307.548C400.5 226.048 417 178.048 468 108.548C521.5 49.0479 594.103 -0.775387 693 0.0478799Z" stroke="#FF0000"/>
<path d="M931.5 510.548C890.5 471.548 877 457.548 825 409.048C850 368.548 863 350.548 880.5 320.548C858.5 285.548 841 258.048 816.5 218.548C866.5 140.548 887.5 108.548 902 85.0477C922 116.048 949.5 161.048 971 191.048C1002.5 142.048 1057 59.5477 1096 2.54765H1269C1245.5 40.0479 1097.5 259.548 1058.5 319.548C1109.5 407.048 1199 551.048 1257 645.548H1082C1026 555.048 1000 513.048 966 459.048C952 478.048 947 488.048 931.5 510.548Z" stroke="#FF0000"/>
<path d="M0 645.548L91 209.048H232.5C232.5 209.048 183 443.548 174 492.548H231C278.536 484.909 338.129 456.738 371.5 379.548C373 438.548 398 486.048 436.5 544.548C403.5 579.548 314.5 642.548 222.5 645.548H0Z" fill="white"/>
</svg>
